<svg width="7" height="8" viewBox="0 0 7 8" fill="none" xmlns="http://www.w3.org/2000/svg">
<path opacity="0.5" d="M6.61652 4.17519C6.50222 4.84434 5.73241 5.31807 4.19278 6.26553C2.51811 7.2961 1.68078 7.81138 1.00911 7.57876C0.842212 7.52096 0.686831 7.43413 0.550131 7.32228C3.45064e-07 6.87216 5.16969e-07 5.88899 8.60778e-07 3.92263C1.20459e-06 1.95627 1.37649e-06 0.973087 0.550132 0.52297C0.686832 0.411121 0.842213 0.324296 1.00911 0.266493C1.68078 0.0338758 2.51811 0.549158 4.19278 1.57972C5.73241 2.52718 6.50222 3.00092 6.61652 3.67006C6.64508 3.83723 6.64508 4.00803 6.61652 4.17519Z" fill="#6F6F6F"/>
</svg>
