<?xml version="1.0" encoding="UTF-8" standalone="no"?>
<!DOCTYPE svg PUBLIC "-//W3C//DTD SVG 1.1//EN" "http://www.w3.org/Graphics/SVG/1.1/DTD/svg11.dtd">
<svg version="1.1" xmlns="http://www.w3.org/2000/svg" xmlns:xlink="http://www.w3.org/1999/xlink" preserveAspectRatio="xMidYMid meet" viewBox="0 0.4912148573238806 22.999999999999996 23" width="19" height="20"><defs><path d="M20 11.6C20 10.19 20 9.48 19.85 8.82C19.65 7.95 19.24 7.12 18.67 6.41C18.25 5.87 17.69 5.42 16.56 4.52C16.56 4.52 16.56 4.52 16.56 4.52C14.65 2.99 13.69 2.22 12.65 1.85C11.26 1.37 9.74 1.37 8.35 1.85C7.31 2.22 6.35 2.99 4.44 4.52C3.31 5.42 2.75 5.87 2.33 6.41C1.76 7.12 1.35 7.95 1.15 8.82C1 9.48 1 10.19 1 11.6C1 12.2 1 16.99 1 17.59C1 18.01 1 18.22 1.03 18.39C1.19 19.47 2.06 20.31 3.17 20.47C3.35 20.49 3.57 20.49 4 20.49C4.08 20.49 4.69 20.49 4.77 20.49C6 20.49 7 19.52 7 18.33C7 18.02 7 15.55 7 15.24C7 13.37 8.57 11.85 10.5 11.85C12.43 11.85 14 13.37 14 15.24C14 15.55 14 18.02 14 18.33C14 19.52 15 20.49 16.23 20.49C16.31 20.49 16.92 20.49 17 20.49C17.43 20.49 17.65 20.49 17.83 20.47C18.94 20.31 19.81 19.47 19.97 18.39C20 18.22 20 18.01 20 17.59C20 16.39 20 12.2 20 11.6Z" id="b1cozKudC9"></path></defs><g><g><use xlink:href="#b1cozKudC9" opacity="1" fill="#000000" fill-opacity="0"></use><g><use xlink:href="#b1cozKudC9" opacity="1" fill-opacity="0" stroke="#ff558b" stroke-width="2" stroke-opacity="1"></use></g></g></g></svg>