<svg width="14" height="18" viewBox="0 0 14 18" fill="none" xmlns="http://www.w3.org/2000/svg">
<circle cx="6.89494" cy="4.83341" r="3.36667" stroke="#6F6F6F" stroke-width="1.6"/>
<mask id="path-2-inside-1" fill="white">
<path fill-rule="evenodd" clip-rule="evenodd" d="M1.80177 16.9736C0.0919186 16.3146 -0.597782 14.2496 0.604796 12.867C2.13261 11.1104 4.38409 10 6.89492 10C9.40575 10 11.6572 11.1104 13.185 12.867C14.3876 14.2496 13.6979 16.3146 11.9881 16.9736C10.4075 17.5827 8.69021 17.9167 6.89492 17.9167C5.09963 17.9167 3.38233 17.5827 1.80177 16.9736Z"/>
</mask>
<path d="M1.81204 13.917C3.04891 12.495 4.86647 11.6 6.89492 11.6V8.4C3.9017 8.4 1.21631 9.72589 -0.602446 11.817L1.81204 13.917ZM6.89492 11.6C8.92336 11.6 10.7409 12.495 11.9778 13.917L14.3923 11.817C12.5735 9.7259 9.88813 8.4 6.89492 8.4V11.6ZM11.4127 15.4806C10.0128 16.0201 8.49037 16.3167 6.89492 16.3167V19.5167C8.89005 19.5167 10.8022 19.1453 12.5635 18.4665L11.4127 15.4806ZM6.89492 16.3167C5.29947 16.3167 3.77705 16.0201 2.37717 15.4806L1.22637 18.4665C2.98761 19.1453 4.89979 19.5167 6.89492 19.5167V16.3167ZM11.9778 13.917C12.1903 14.1614 12.2353 14.4403 12.1486 14.7239C12.0561 15.0265 11.8073 15.3285 11.4127 15.4806L12.5635 18.4665C15.1212 17.4807 16.4504 14.1832 14.3923 11.817L11.9778 13.917ZM-0.602446 11.817C-2.66053 14.1832 -1.33138 17.4807 1.22637 18.4665L2.37717 15.4806C1.98257 15.3285 1.73374 15.0265 1.64122 14.7239C1.55452 14.4403 1.59948 14.1614 1.81204 13.917L-0.602446 11.817Z" fill="#6F6F6F" mask="url(#path-2-inside-1)"/>
</svg>
