<svg width="17" height="18" viewBox="0 0 17 18" fill="none" xmlns="http://www.w3.org/2000/svg">
<path d="M16 14.6316V9.74332C16 8.59275 16 8.01746 15.8799 7.47945C15.7198 6.76209 15.4035 6.08886 14.9535 5.50769C14.616 5.07182 14.1732 4.70459 13.2875 3.97015L13.2875 3.97014C11.775 2.71588 11.0188 2.08875 10.1965 1.79215C9.10006 1.39668 7.89994 1.39668 6.80352 1.79215C5.98122 2.08875 5.22497 2.71588 3.71248 3.97014C2.82682 4.70459 2.38399 5.07182 2.04651 5.50769C1.59653 6.08886 1.28022 6.76209 1.12009 7.47945C1 8.01746 1 8.59275 1 9.74332V14.6316C1 14.9738 1 15.1449 1.0209 15.2883C1.14846 16.1639 1.83613 16.8515 2.71165 16.9791C2.85507 17 3.02619 17 3.36842 17H3.97465C4.94788 17 5.73684 16.211 5.73684 15.2378V12.7144C5.73684 11.1883 6.97395 9.95122 8.5 9.95122C10.0261 9.95122 11.2632 11.1883 11.2632 12.7144V15.2378C11.2632 16.211 12.0521 17 13.0254 17H13.6316C13.9738 17 14.1449 17 14.2883 16.9791C15.1639 16.8515 15.8515 16.1639 15.9791 15.2883C16 15.1449 16 14.9738 16 14.6316Z" stroke="#6F6F6F" stroke-width="1.6"/>
</svg>
