<svg width="97" height="26" viewBox="0 0 97 26" fill="none" xmlns="http://www.w3.org/2000/svg">
<path fill-rule="evenodd" clip-rule="evenodd" d="M19.8742 15.9669L27.6819 0H28.3917L36.022 15.9669H33.1828L30.6986 10.7862H23.7781L21.2938 15.9669H19.8742ZM24.3104 9.68209L27.3271 3.73695L30.1662 9.68209H24.3104Z" fill="#3F3F3F"/>
<path d="M0 15.882V0.339722H1.41959L12.0665 11.8054V0.339722H13.3974V16.3067H12.6876L1.41959 3.65201V15.882H0Z" fill="#3F3F3F"/>
<path d="M40.3695 1.61368V0.339722H55.5413V0.764375L44.1846 14.7779H55.6301V15.9669H40.3695V15.3724L51.6375 1.61368H40.3695Z" fill="#3F3F3F"/>
<path d="M62.9942 0.339722H60.2437L68.0515 16.3067H68.85L76.3028 0.339722H74.7945L69.1161 12.6547L62.9942 0.339722Z" fill="#3F3F3F"/>
<path fill-rule="evenodd" clip-rule="evenodd" d="M88.1031 0L80.2954 15.9669H81.715L84.1993 10.7862H91.1198L93.604 15.9669H96.4432L88.8129 0H88.1031ZM87.7482 3.73695L84.7316 9.68209H90.5874L87.7482 3.73695Z" fill="#3F3F3F"/>
<path d="M3.61129 20.7843H4.15165V24.1228C4.15165 24.7922 3.98422 25.2731 3.64935 25.5654C3.31701 25.8551 2.88066 26 2.3403 26C1.73905 26 1.29382 25.8501 1.00462 25.5504C0.715409 25.2506 0.570805 24.7748 0.570805 24.1228V20.7843H1.22152V24.1228C1.22152 24.52 1.26846 24.7997 1.36232 24.9621C1.45619 25.1245 1.59825 25.2444 1.78852 25.3218C1.97879 25.3992 2.17794 25.438 2.38596 25.438C2.7868 25.438 3.09123 25.3343 3.29925 25.127C3.50728 24.9196 3.61129 24.5849 3.61129 24.1228V20.7843Z" fill="#3F3F3F"/>
<path d="M12.951 25.8988H12.2394L10.6868 23.0774L9.49576 24.5349V25.8988H8.84504V20.7843H9.49576V23.7518L11.8437 20.7843H12.5477L11.1397 22.5753L12.951 25.8988Z" fill="#3F3F3F"/>
<path d="M20.9513 25.8988H20.2701L19.3112 23.6844H17.8233V25.8988H17.2144V20.7843H19.2617C19.8173 20.7843 20.2283 20.9341 20.4946 21.2339C20.7635 21.5312 20.898 21.8571 20.898 22.2118C20.898 22.4841 20.8232 22.7452 20.6735 22.995C20.5238 23.2448 20.2765 23.4234 19.9314 23.5308L20.9513 25.8988ZM17.8233 23.1636H19.1818C19.5395 23.1636 19.8059 23.0711 19.9809 22.8863C20.1585 22.6989 20.2473 22.4704 20.2473 22.2006C20.2473 21.9308 20.1534 21.721 19.9657 21.5711C19.7805 21.4212 19.5458 21.3463 19.2617 21.3463H17.8233V23.1636Z" fill="#3F3F3F"/>
<path d="M28.9591 25.8988H28.2932L27.7681 24.4038H25.8464L25.3821 25.8988H24.8379L26.5237 20.7843H27.2658L28.9591 25.8988ZM27.6311 23.9242L26.8319 21.4662L26.0252 23.9242H27.6311Z" fill="#3F3F3F"/>
<path d="M33.7591 25.8988H33.1084V20.7843H33.7591V25.8988Z" fill="#3F3F3F"/>
<path d="M42.3492 25.8988H41.7175L39.0309 21.44L39.0385 21.7772C39.0461 21.9046 39.0499 22.012 39.0499 22.0994V25.8988H38.5248V20.7843H39.3391L41.8507 24.9546L41.843 24.5986C41.838 24.4588 41.8354 24.3351 41.8354 24.2277V20.7843H42.3492V25.8988Z" fill="#3F3F3F"/>
<path d="M50.475 25.3368V25.8988H47.1148V20.7843H50.4027V21.3463H47.7656V22.9725H49.8585V23.4933H47.7656V25.3368H50.475Z" fill="#3F3F3F"/>
<path d="M60.2689 25.8988V20.7843H62.3238C62.8414 20.7843 63.2244 20.9092 63.473 21.159C63.7242 21.4088 63.8498 21.6985 63.8498 22.0282C63.8498 22.6078 63.5428 22.9925 62.9289 23.1823C63.2942 23.2747 63.5656 23.4396 63.7432 23.6769C63.9208 23.9142 64.0096 24.1827 64.0096 24.4825C64.0096 24.8847 63.8713 25.2219 63.5948 25.4942C63.3208 25.7639 62.8972 25.8988 62.3238 25.8988H60.2689ZM60.8968 22.9762H62.027C62.4963 22.9762 62.8096 22.8888 62.9669 22.7139C63.1242 22.5366 63.2029 22.3293 63.2029 22.0919C63.2029 21.8571 63.1179 21.6673 62.9479 21.5224C62.7805 21.3775 62.5293 21.3051 62.1944 21.3051H60.8968V22.9762ZM60.8968 25.3368H62.2896C62.6295 25.3368 62.8921 25.2556 63.0773 25.0932C63.2625 24.9309 63.3551 24.7198 63.3551 24.46C63.3551 24.2777 63.3132 24.109 63.2295 23.9542C63.1458 23.7968 63.0278 23.6756 62.8756 23.5907C62.7234 23.5058 62.4963 23.4633 62.1944 23.4633H60.8968V25.3368Z" fill="#3F3F3F"/>
<path d="M72.1849 25.8988H71.5037L70.5448 23.6844H69.0569V25.8988H68.448V20.7843H70.4953C71.0509 20.7843 71.4619 20.9341 71.7283 21.2339C71.9972 21.5312 72.1316 21.8571 72.1316 22.2118C72.1316 22.4841 72.0568 22.7452 71.9071 22.995C71.7574 23.2448 71.5101 23.4234 71.1651 23.5308L72.1849 25.8988ZM69.0569 23.1636H70.4154C70.7731 23.1636 71.0395 23.0711 71.2145 22.8863C71.3921 22.6989 71.4809 22.4704 71.4809 22.2006C71.4809 21.9308 71.387 21.721 71.1993 21.5711C71.0141 21.4212 70.7795 21.3463 70.4953 21.3463H69.0569V23.1636Z" fill="#3F3F3F"/>
<path d="M80.1928 25.8988H79.5268L79.0017 24.4038H77.08L76.6157 25.8988H76.0715L77.7573 20.7843H78.4994L80.1928 25.8988ZM78.8647 23.9242L78.0656 21.4662L77.2588 23.9242H78.8647Z" fill="#3F3F3F"/>
<path d="M88.1664 25.8988H87.5347L84.8481 21.44L84.8557 21.7772C84.8633 21.9046 84.8671 22.012 84.8671 22.0994V25.8988H84.342V20.7843H85.1563L87.6679 24.9546L87.6603 24.5986C87.6552 24.4588 87.6526 24.3351 87.6526 24.2277V20.7843H88.1664V25.8988Z" fill="#3F3F3F"/>
<path d="M92.9321 25.8988V20.7843H94.6749C95.4081 20.7843 95.9789 21.0303 96.3873 21.5224C96.7958 22.0145 97 22.6165 97 23.3284C97 24.0503 96.8008 24.6598 96.4026 25.1569C96.0043 25.6515 95.4994 25.8988 94.888 25.8988H92.9321ZM93.5828 25.3555H94.6369C95.195 25.3555 95.6187 25.1657 95.9079 24.786C96.1971 24.4063 96.3417 23.9055 96.3417 23.2835C96.3417 22.7789 96.2034 22.3255 95.9269 21.9233C95.6529 21.5212 95.2229 21.3201 94.6369 21.3201H93.5828V25.3555Z" fill="#3F3F3F"/>
</svg>
